<svg width="10" height="10" viewBox="0 0 10 10" fill="none" xmlns="http://www.w3.org/2000/svg">
<g clip-path="url(#clip0_1468_262)">
<path d="M0.947953 9.93744C0.702781 9.9517 0.461663 9.87019 0.275445 9.71011C-0.0918149 9.34067 -0.0918149 8.74399 0.275445 8.37455L8.31722 0.332744C8.69921 -0.0246894 9.2986 -0.00481991 9.65603 0.377162C9.97925 0.722587 9.99809 1.25351 9.70014 1.62096L1.61098 9.71011C1.42716 9.86788 1.18991 9.94923 0.947953 9.93744Z" fill="#9B782C"/>
<path d="M8.9795 9.93745C8.73102 9.93639 8.49287 9.83776 8.31645 9.66277L0.274636 1.62095C-0.0656111 1.22362 -0.0193528 0.625661 0.377976 0.285384C0.732603 -0.018305 1.25561 -0.018305 1.6102 0.285384L9.69936 8.32718C10.0812 8.68471 10.101 9.28413 9.74347 9.66602C9.72924 9.68121 9.71455 9.6959 9.69936 9.71012C9.50129 9.88237 9.24061 9.96469 8.9795 9.93745Z" fill="#9B782C"/>
</g>
<defs>
<clipPath id="clip0_1468_262">
<rect width="10" height="10" fill="white"/>
</clipPath>
</defs>
</svg>
