<svg width="20" height="20" viewBox="0 0 20 20" fill="none" xmlns="http://www.w3.org/2000/svg">
<path d="M10.074 17.8941C14.4749 17.8941 18.0425 14.3265 18.0425 9.92557C18.0425 5.52467 14.4749 1.95703 10.074 1.95703C5.6731 1.95703 2.10547 5.52467 2.10547 9.92557C2.10547 14.3265 5.6731 17.8941 10.074 17.8941Z" fill="#FFDA44"/>
<path d="M4.44019 15.5605C4.77446 15.8948 5.13112 16.1929 5.50523 16.4554L16.6042 5.35634C16.3418 4.98222 16.0437 4.62557 15.7094 4.29129C15.3751 3.95702 15.0185 3.65895 14.6444 3.39648L3.54541 14.4955C3.80781 14.8695 4.10595 15.2262 4.44019 15.5605Z" fill="black"/>
<path d="M4.43907 4.29059C1.92518 6.80454 1.44256 10.58 2.99029 13.5789L13.7273 2.84185C10.7285 1.29411 6.95299 1.77677 4.43907 4.29059Z" fill="#6DA544"/>
<path d="M15.7057 15.5617C18.2196 13.0478 18.7022 9.27231 17.1545 6.27344L6.41748 17.0105C9.41629 18.5582 13.1918 18.0756 15.7057 15.5617Z" fill="#338AF3"/>
<circle cx="10" cy="10" r="9.5" stroke="#424242"/>
</svg>
