<svg width="17" height="17" viewBox="0 0 17 17" fill="none" xmlns="http://www.w3.org/2000/svg">
<path d="M14.5104 2.48957C12.905 0.884166 10.7704 0 8.5 0C6.22957 0 4.09504 0.884166 2.48957 2.48957C0.884166 4.09504 0 6.22957 0 8.5C0 10.7704 0.884166 12.905 2.48957 14.5104C4.09504 16.1158 6.22957 17 8.5 17C10.7704 17 12.905 16.1158 14.5104 14.5104C16.1158 12.905 17 10.7704 17 8.5C17 6.22957 16.1158 4.09504 14.5104 2.48957ZM13.8061 3.19394C15.2234 4.61125 16.0039 6.49563 16.0039 8.5C16.0039 10.3374 15.3475 12.0737 14.1465 13.4421L11.7373 11.033V8.63832C11.7373 7.89494 11.4752 7.17101 10.9993 6.59992C10.6722 6.20752 10.4922 5.71007 10.4922 5.19921V2.50684H6.50781V5.19924C6.50781 5.38126 6.48454 5.56149 6.44031 5.73597L3.55791 2.85358C4.92628 1.65245 6.66257 0.996094 8.5 0.996094C10.5044 0.996094 12.3888 1.77663 13.8061 3.19394ZM6.7659 7.23762C7.17835 6.74266 7.42986 6.13285 7.4897 5.49512H9.51027C9.5701 6.13285 9.82158 6.74266 10.2341 7.23762C10.5611 7.63004 10.7412 8.12746 10.7412 8.63832V8.97095C9.76965 8.92855 9.22064 8.7624 8.64443 8.58779C8.0326 8.40238 7.40234 8.21166 6.31125 8.16319C6.38665 7.82501 6.54175 7.50666 6.7659 7.23762ZM9.49609 4.49902H7.50391V3.50293H9.49609V4.49902ZM6.25879 9.15795C7.23031 9.20035 7.77936 9.3665 8.35557 9.54112C8.97719 9.72948 9.61755 9.92342 10.7412 9.96801V12.9658H6.25879V9.15795ZM3.19394 13.8061C1.77663 12.3888 0.996094 10.5044 0.996094 8.5C0.996094 6.66257 1.65245 4.92628 2.85354 3.55788L5.95408 6.65842C5.5081 7.22012 5.2627 7.91991 5.2627 8.63832V13.9619H11.7373V12.4416L13.4421 14.1465C12.0738 15.3475 10.3374 16.0039 8.5 16.0039C6.49563 16.0039 4.61125 15.2234 3.19394 13.8061Z" fill="#76A9B4"/>
</svg>
